# xmcd
#
# Track frame offsets: 
#        150
#        16217
#        35790
#        49327
#        65785
#        77742
#        93745
#        112265
#        127965
#        139497
#        163945
#        181305
#        192260
#        206465
#        218727
#        235110
#        252600
#        263697
#        277597
#        302350
#
# Disc length: 4131 seconds
#
# Revision: 2
# Processed by: cddbd v1.5.1PL0 Copyright (c) Steve Scherf et al.
# Submitted via: ExactAudioCopy v0.95a5
#
DISCID=29102114
DTITLE=Frank Morey - The Delmark Sessions
DYEAR=2002
DGENRE=Blues
TTITLE0=I Know (The Woman's Goin' To Break My Heart) (140''')
TTITLE1=Luci
TTITLE2=New Orleans (132''')
TTITLE3=Let it Roll (124'')
TTITLE4=Every Night I Have The Same Damn Dream (129'')
TTITLE5=Murder Bound
TTITLE6=Saturday Night (102'')
TTITLE7=Dry Up
TTITLE8=Barmaid, Barmaid (117'')
TTITLE9=Baby, Don't Leave A Light On (60'')
TTITLE10=Uncle Lefty's Lament (135'')
TTITLE11=Blame it on the Devil (177'')
TTITLE12=Moonlight (On A Cloudy Saturday Night)
TTITLE13=Red Brick Town
TTITLE14=Goin' Down Kickin'
TTITLE15=Hey-Hey Baby
TTITLE16=Lorraine (118'')
TTITLE17=Wishing Well
TTITLE18=Stack O' Lee (137''')
TTITLE19=Willow
EXTD=YEAR: 2002 ID3G: 0
EXTT0=
EXTT1=
EXTT2=
EXTT3=
EXTT4=
EXTT5=
EXTT6=
EXTT7=
EXTT8=
EXTT9=
EXTT10=
EXTT11=
EXTT12=
EXTT13=
EXTT14=
EXTT15=
EXTT16=
EXTT17=
EXTT18=
EXTT19=
PLAYORDER=
